<svg
    width="1024"
    height="1024"
    viewBox="0 0 1024 1024"
    fill="#F66C0E"
    xmlns="http://www.w3.org/2000/svg"
    >
  <path d="M943.473 436.343L867.257 360.835C867.243 360.822 867.23 360.809 867.216 360.809L867.257 360.835C839.166 333.027 793.663 333.054 765.613 360.835L714.789 411.178L778.305 474.097C799.355 494.95 799.355 528.753 778.305 549.593L740.171 587.372C714.181 613.071 698.069 648.716 698.1 688.099C698.1 726.147 713.163 760.723 737.765 786.221L740.202 788.626L943.473 587.36C985.581 545.654 985.581 478.049 943.473 436.343Z"/>
  <path d="M867.263 360.835L867.223 360.809L765.622 260.163C737.542 232.354 692.024 232.381 663.978 260.163L257.443 662.866C253.951 666.337 250.187 669.275 246.221 671.945C218.321 690.234 180.384 687.163 155.798 662.866L257.435 763.526C285.514 791.294 330.993 791.294 359.074 763.526L765.622 360.848C793.671 333.054 839.174 333.027 867.263 360.835Z"/>
  <path d="M308.254 612.54L244.738 549.593C223.683 528.754 223.683 494.952 244.738 474.099L282.851 436.345C338.979 380.755 338.979 290.59 282.851 235L79.5694 436.345C37.4769 478.051 37.4769 545.643 79.5694 587.361L155.803 662.868C180.381 687.165 218.325 690.236 246.227 671.947C250.191 669.277 253.947 666.339 257.441 662.868L308.254 612.54Z"/>
</svg>
